<?xml version="1.0" standalone="no"?>
<!DOCTYPE svg PUBLIC "-//W3C//DTD SVG 20010904//EN"
 "http://www.w3.org/TR/2001/REC-SVG-20010904/DTD/svg10.dtd">
<svg version="1.0" xmlns="http://www.w3.org/2000/svg"
 width="405.000000pt" height="409.000000pt" viewBox="0 0 405.000000 409.000000"
 preserveAspectRatio="xMidYMid meet">

<g transform="translate(0.000000,409.000000) scale(0.100000,-0.100000)"
fill="#000000" stroke="none">
<path d="M1761 3919 c-143 -27 -232 -59 -396 -139 -292 -145 -514 -362 -664
-650 -99 -191 -148 -379 -158 -605 -10 -252 42 -495 153 -718 38 -76 51 -87
99 -87 82 0 84 38 14 216 -92 234 -116 363 -106 569 10 196 48 345 132 521 64
133 137 236 253 356 200 207 441 335 725 384 113 20 354 14 467 -10 298 -65
471 -165 706 -407 235 -243 333 -476 351 -829 10 -218 -22 -376 -136 -657 -51
-126 -52 -142 -8 -145 100 -5 125 9 171 100 50 100 83 198 108 324 32 162 32
465 0 615 -31 141 -73 258 -144 393 -77 147 -131 224 -237 334 -220 228 -449
357 -756 428 -135 31 -431 35 -574 7z"/>
<path d="M1447 2396 c-60 -16 -94 -41 -118 -86 -52 -97 39 -270 143 -270 76 0
178 71 194 136 11 41 -2 112 -26 147 -47 69 -115 94 -193 73z"/>
<path d="M2510 2398 c-79 -22 -130 -85 -130 -160 1 -93 84 -198 158 -198 44 0
130 39 156 70 25 30 46 84 46 115 0 67 -67 158 -130 175 -41 12 -54 11 -100
-2z"/>
<path d="M1130 1590 c-115 -10 -242 -35 -380 -75 -142 -41 -209 -66 -373 -140
l-127 -57 0 -145 0 -144 48 7 c92 13 112 33 112 112 0 76 30 95 260 170 249
81 440 114 670 113 121 0 196 -5 270 -17 91 -15 148 -26 170 -34 14 -5 36 -12
50 -14 14 -3 45 -11 70 -18 l45 -14 3 -612 2 -612 84 0 83 0 2 413 c1 471 9
819 19 828 4 4 48 16 99 28 341 79 716 65 1046 -40 73 -23 137 -42 142 -44 6
-1 23 -7 38 -13 15 -7 39 -15 53 -18 13 -3 27 -10 30 -15 3 -5 13 -9 22 -9 33
0 78 -53 86 -99 11 -69 30 -98 71 -105 20 -4 42 -9 49 -12 8 -3 21 2 30 11 13
14 16 40 16 151 0 119 -2 135 -17 140 -10 3 -34 14 -53 24 -70 36 -230 100
-348 139 -224 75 -425 102 -722 100 -226 -2 -318 -11 -479 -50 -139 -33 -181
-35 -278 -15 -38 8 -82 18 -98 21 -193 40 -516 61 -695 45z"/>
<path d="M365 865 c-106 -26 -211 -113 -265 -221 -31 -59 -32 -68 -28 -146 4
-69 11 -96 40 -158 53 -111 110 -164 218 -200 49 -17 80 -21 125 -17 59 4 167
42 201 69 132 107 187 251 150 398 -30 120 -108 205 -242 263 -67 30 -117 33
-199 12z m175 -187 c26 -13 56 -40 72 -63 24 -36 26 -48 25 -121 -2 -70 -6
-86 -30 -123 -40 -60 -99 -85 -178 -76 -113 13 -186 91 -188 200 -1 44 35 130
65 157 58 51 161 62 234 26z"/>
<path d="M3528 869 c-61 -9 -106 -37 -191 -118 -93 -89 -102 -107 -101 -211 1
-107 23 -182 77 -263 107 -158 267 -203 434 -121 83 40 196 153 208 208 1 6 6
20 11 31 5 11 9 54 9 95 -1 57 -6 88 -25 130 -63 142 -128 210 -225 235 -56
14 -150 20 -197 14z m171 -191 c126 -65 150 -223 48 -323 -69 -69 -143 -81
-236 -39 -80 35 -111 84 -111 173 0 175 146 267 299 189z"/>
</g>
</svg>
