<?xml version="1.0" standalone="no"?>
<!DOCTYPE svg PUBLIC "-//W3C//DTD SVG 20010904//EN"
 "http://www.w3.org/TR/2001/REC-SVG-20010904/DTD/svg10.dtd">
<svg version="1.0" xmlns="http://www.w3.org/2000/svg"
 width="736.000000pt" height="186.000000pt" viewBox="0 0 736.000000 186.000000"
 preserveAspectRatio="xMidYMid meet">

<g transform="translate(0.000000,186.000000) scale(0.100000,-0.100000)"
fill="#000000" stroke="none">
<path d="M800 1654 c-101 -21 -205 -79 -281 -155 -163 -165 -206 -410 -107
-622 19 -41 26 -48 47 -45 31 4 31 13 -4 97 -120 287 78 628 392 673 93 13
202 -5 292 -48 75 -37 190 -152 224 -226 60 -126 63 -278 8 -408 -17 -41 -31
-78 -31 -82 0 -5 13 -8 30 -8 24 0 33 7 50 40 56 110 67 277 25 407 -88 277
-363 438 -645 377z"/>
<path d="M3173 1495 c-133 -29 -263 -130 -321 -248 -94 -191 -80 -515 28 -672
76 -111 186 -165 351 -173 132 -6 139 -1 139 98 l0 69 -102 -2 c-124 -2 -163
13 -221 89 -125 164 -109 480 32 606 50 46 93 58 204 58 l87 0 0 63 c0 90 -6
105 -49 117 -46 13 -71 12 -148 -5z"/>
<path d="M4566 1503 c-126 -2 -204 -7 -213 -14 -18 -16 -19 -1049 -1 -1067 9
-9 72 -12 220 -12 205 0 208 0 222 23 13 20 15 57 7 134 0 6 -8 19 -17 27 -12
13 -40 16 -135 16 -88 0 -119 3 -120 13 -3 37 4 273 8 277 2 3 59 7 126 10
l122 5 9 37 c6 23 6 56 0 85 l-9 48 -115 1 c-63 0 -121 1 -127 2 -10 2 -13 29
-13 101 0 55 3 106 6 115 5 13 25 16 118 16 61 0 122 3 135 7 23 6 24 8 18 86
-6 71 -18 103 -37 95 -3 -2 -95 -4 -204 -5z"/>
<path d="M2239 1467 c-104 -53 -159 -149 -159 -277 0 -92 32 -141 185 -288 74
-70 139 -140 144 -155 6 -16 11 -51 11 -79 0 -43 -4 -54 -33 -83 -57 -57 -138
-59 -220 -4 -26 17 -51 27 -57 24 -14 -9 -29 -48 -40 -104 -7 -38 -5 -47 14
-66 30 -30 139 -49 243 -43 97 5 171 41 220 106 39 52 53 98 53 179 0 122 -53
208 -218 353 -53 47 -105 101 -115 120 -24 47 -19 133 10 162 31 30 98 34 153
9 28 -12 48 -16 56 -11 20 17 49 130 37 148 -15 26 -70 41 -150 41 -62 1 -80
-3 -134 -32z"/>
<path d="M3567 1485 c-15 -14 -16 -69 -14 -553 l2 -537 85 0 85 0 3 205 c1
112 7 209 11 213 10 10 99 -161 176 -335 l39 -88 98 0 c88 0 98 2 98 18 0 10
-50 118 -110 240 l-111 222 61 59 c37 37 70 81 86 116 52 112 19 295 -68 376
-64 60 -107 72 -274 77 -129 3 -153 1 -167 -13z m284 -188 c19 -12 42 -38 51
-57 54 -107 -27 -267 -132 -258 l-35 3 -3 148 c-1 90 2 155 8 167 15 27 68 26
111 -3z"/>
<path d="M5225 1488 c-2 -7 -33 -148 -69 -313 -36 -165 -88 -401 -115 -525
-28 -124 -51 -231 -51 -237 0 -10 24 -13 85 -13 97 0 99 2 111 89 8 64 22 71
127 71 111 0 113 -2 139 -84 l23 -71 78 -3 c62 -2 78 0 83 12 3 9 -8 73 -25
143 -16 71 -66 301 -111 513 -44 212 -82 395 -85 408 -5 21 -10 22 -96 22 -63
0 -91 -4 -94 -12z m133 -594 c17 -81 29 -151 26 -155 -7 -13 -118 -11 -130 1
-8 8 -2 51 18 143 16 73 31 138 33 145 11 33 24 0 53 -134z"/>
<path d="M5999 1467 c-104 -53 -159 -149 -159 -277 0 -92 32 -141 185 -288 74
-70 139 -140 144 -155 6 -16 11 -51 11 -79 0 -43 -4 -54 -33 -83 -57 -57 -138
-59 -220 -4 -26 17 -51 27 -57 24 -14 -9 -29 -48 -40 -104 -7 -38 -5 -47 14
-66 30 -30 139 -49 243 -43 97 5 171 41 220 106 39 52 53 98 53 179 0 122 -53
208 -218 353 -53 47 -105 101 -115 120 -24 47 -19 133 10 162 31 30 98 34 153
9 28 -12 48 -16 56 -11 20 17 49 130 37 148 -15 26 -70 41 -150 41 -62 1 -80
-3 -134 -32z"/>
<path d="M6618 1492 c-58 -2 -68 -6 -68 -21 0 -10 33 -87 74 -172 40 -85 100
-212 132 -284 l59 -130 3 -248 3 -248 87 3 87 3 5 245 5 245 97 215 c53 118
110 251 128 295 30 76 31 80 13 93 -23 17 -139 10 -158 -9 -8 -8 -48 -93 -90
-189 -42 -96 -80 -179 -84 -183 -4 -4 -13 -2 -18 5 -13 16 -143 340 -143 356
0 7 -1 12 -3 12 -1 0 -16 3 -32 8 -17 4 -60 6 -97 4z"/>
<path d="M672 1074 c-30 -21 -30 -73 1 -102 26 -25 36 -26 70 -11 29 13 49 51
40 76 -18 52 -67 68 -111 37z"/>
<path d="M1072 1074 c-30 -21 -30 -73 1 -102 26 -25 36 -26 70 -11 29 13 49
51 40 76 -18 52 -67 68 -111 37z"/>
<path d="M545 780 c-80 -13 -157 -36 -232 -70 l-63 -29 0 -54 0 -54 30 5 c26
4 30 8 30 37 0 32 2 34 73 59 170 61 320 68 470 24 l37 -11 0 -229 0 -228 30
0 30 0 2 232 3 232 30 8 c136 38 295 29 447 -25 88 -31 93 -35 96 -64 2 -22 9
-33 25 -37 36 -9 37 -8 37 49 l0 56 -67 30 c-117 52 -214 73 -348 73 -84 0
-140 -5 -188 -18 -64 -17 -72 -17 -134 -2 -80 21 -229 28 -308 16z"/>
<path d="M284 509 c-43 -12 -92 -65 -100 -106 -9 -46 20 -117 57 -143 45 -33
90 -36 143 -11 112 55 106 209 -11 257 -36 16 -45 16 -89 3z m96 -79 c25 -25
26 -80 1 -111 -14 -17 -28 -23 -56 -22 -69 2 -101 67 -61 127 21 33 85 37 116
6z"/>
<path d="M1472 513 c-12 -2 -41 -21 -62 -42 -36 -34 -40 -43 -40 -87 0 -81 63
-154 133 -154 71 0 147 71 147 138 0 42 -32 104 -63 125 -27 18 -81 27 -115
20z m99 -92 c48 -61 -16 -146 -91 -120 -35 13 -50 36 -50 76 1 75 94 104 141
44z"/>
</g>
</svg>
