<?xml version="1.0" standalone="no"?>
<!DOCTYPE svg PUBLIC "-//W3C//DTD SVG 20010904//EN"
 "http://www.w3.org/TR/2001/REC-SVG-20010904/DTD/svg10.dtd">
<svg version="1.0" xmlns="http://www.w3.org/2000/svg"
 width="625.000000pt" height="517.000000pt" viewBox="0 0 625.000000 517.000000"
 preserveAspectRatio="xMidYMid meet">

<g transform="translate(0.000000,517.000000) scale(0.100000,-0.100000)"
fill="#000000" stroke="none">
<path d="M2369 5087 c-106 -30 -168 -80 -330 -268 -179 -207 -211 -230 -464
-335 -362 -149 -419 -227 -445 -614 -6 -91 -15 -181 -21 -201 -5 -20 -9 -44
-9 -54 0 -29 -71 -169 -147 -290 -118 -189 -153 -276 -153 -384 0 -96 35 -188
130 -341 174 -279 180 -295 200 -575 13 -180 26 -254 55 -320 55 -124 146
-196 350 -279 274 -111 339 -156 496 -343 257 -307 350 -337 739 -242 63 15
154 33 202 40 100 15 158 8 363 -41 237 -57 309 -62 406 -30 111 38 164 81
318 258 187 216 196 223 470 341 189 82 269 129 325 191 37 41 73 110 88 170
12 48 37 282 38 354 0 32 5 77 11 100 6 22 15 59 21 81 14 50 76 168 138 260
110 165 150 265 150 377 0 77 -23 168 -59 231 -38 66 -84 143 -101 167 -16 23
-30 46 -78 133 -48 86 -82 211 -82 307 -1 68 -26 291 -39 343 -18 72 -61 145
-116 196 -69 62 -130 97 -270 154 -273 112 -316 142 -475 326 -139 163 -203
222 -288 263 -64 32 -71 33 -182 32 -99 0 -136 -6 -270 -39 -140 -36 -168 -39
-285 -40 -108 0 -150 5 -250 28 -66 16 -133 33 -150 38 -50 17 -235 21 -286 6z
m271 -31 c36 -8 115 -27 175 -42 92 -23 131 -28 240 -28 119 0 143 4 280 39
121 31 172 39 265 42 109 4 118 3 172 -24 93 -45 144 -92 323 -302 120 -140
177 -178 406 -274 239 -101 320 -155 374 -255 38 -68 65 -190 66 -295 0 -79
22 -259 38 -321 14 -57 70 -166 141 -276 126 -196 173 -330 150 -432 -24 -108
-60 -184 -158 -331 -58 -88 -104 -175 -127 -242 -19 -56 -44 -248 -45 -340 0
-58 -20 -189 -35 -230 -34 -97 -107 -177 -211 -232 -32 -17 -122 -57 -199 -89
-77 -31 -166 -73 -197 -91 -69 -40 -166 -133 -271 -260 -96 -114 -171 -182
-245 -219 -53 -27 -64 -29 -172 -28 -99 0 -136 6 -265 39 -118 30 -174 39
-265 43 -120 5 -142 1 -350 -50 -150 -38 -327 -45 -391 -16 -66 31 -162 112
-238 202 -194 229 -253 278 -437 357 -63 27 -117 49 -119 49 -2 0 -34 14 -71
30 -167 77 -253 167 -282 295 -25 107 -32 159 -32 234 0 79 -21 238 -39 299
-15 50 -61 141 -102 203 -65 96 -149 243 -156 269 -3 14 -11 31 -17 39 -6 8
-11 57 -11 115 0 131 16 174 135 366 69 112 102 168 119 205 7 17 17 37 21 45
22 45 50 230 50 332 0 72 19 205 38 263 28 91 90 164 187 220 26 16 124 61
218 101 244 105 291 139 442 319 136 162 215 231 304 266 57 23 199 25 291 5z"/>
<path d="M1975 3686 c-49 -18 -98 -72 -114 -126 -13 -43 -16 -205 -5 -268 12
-72 37 -139 126 -331 113 -243 129 -303 135 -491 5 -140 4 -146 -19 -180 -32
-47 -82 -53 -118 -15 -22 24 -24 35 -28 151 l-4 125 -47 -3 -46 -3 0 -125 c0
-69 4 -137 8 -152 22 -81 124 -131 223 -109 62 14 116 66 133 128 31 107 22
300 -21 453 -11 41 -60 158 -109 260 -101 211 -129 304 -129 427 0 99 17 149
56 164 32 12 78 -3 90 -29 5 -10 11 -73 14 -142 l5 -125 54 -3 53 -3 -4 128
c-3 115 -7 135 -30 183 -16 33 -39 62 -57 73 -42 25 -117 30 -166 13z"/>
<path d="M2456 3689 c-53 -13 -92 -43 -119 -92 -22 -42 -22 -44 -25 -622 -2
-358 1 -604 7 -644 15 -92 50 -140 121 -165 46 -15 63 -17 107 -8 68 14 98 35
131 91 27 45 27 49 27 221 l0 175 -44 3 c-28 2 -47 -1 -52 -10 -5 -7 -9 -80
-9 -161 0 -149 -6 -179 -39 -204 -24 -19 -78 -16 -100 6 -37 37 -41 102 -41
680 l0 558 23 34 c24 35 56 46 103 35 44 -12 54 -51 54 -221 l0 -156 53 3 52
3 -1 165 c-2 141 -5 172 -22 210 -41 94 -113 125 -226 99z"/>
<path d="M2800 2930 l0 -760 50 0 50 0 2 358 3 357 23 3 c34 5 49 -12 55 -66
3 -26 15 -108 27 -182 11 -74 29 -196 40 -270 33 -222 24 -200 86 -200 35 0
54 4 54 12 0 10 -35 230 -90 561 -26 156 -26 182 5 219 44 52 50 96 50 343 l0
230 -28 58 c-41 82 -73 97 -217 97 l-110 0 0 -760z m208 640 c31 -29 37 -74
37 -285 -1 -203 -9 -253 -48 -280 -26 -18 -68 -20 -85 -3 -17 17 -17 559 0
576 19 19 72 14 96 -8z"/>
<path d="M3267 3684 c-4 -4 -7 -318 -7 -698 0 -679 0 -690 21 -733 25 -52 61
-79 124 -93 106 -24 198 24 225 117 7 26 10 251 8 723 l-3 685 -47 3 c-27 2
-49 2 -50 0 -2 -2 -5 -317 -8 -700 -5 -644 -6 -699 -22 -715 -25 -25 -83 -22
-111 5 l-22 23 -5 692 -5 692 -45 3 c-25 2 -49 0 -53 -4z"/>
<path d="M3755 3668 c-3 -13 -4 -354 -3 -758 l3 -735 48 -3 47 -3 1 433 c1
419 8 583 21 528 4 -14 14 -86 22 -160 9 -74 25 -216 37 -315 11 -99 28 -247
37 -330 l17 -150 47 -3 c51 -3 50 -5 63 98 2 25 18 155 35 290 17 135 35 283
40 330 19 155 32 245 39 260 3 8 8 -208 11 -480 l5 -495 48 -3 47 -3 -2 758
-3 758 -65 0 -65 0 -66 -525 c-77 -614 -71 -573 -85 -577 -6 -2 -16 53 -27
149 -9 84 -26 227 -37 318 -25 207 -35 288 -55 470 -9 80 -18 151 -20 158 -3
8 -26 12 -69 12 -60 0 -66 -2 -71 -22z"/>
<path d="M154 596 c-29 -29 -34 -41 -34 -80 0 -36 6 -52 29 -78 26 -30 35 -33
107 -39 64 -5 81 -10 96 -29 24 -29 23 -65 -2 -90 -17 -17 -33 -20 -113 -20
-98 0 -124 -8 -114 -34 9 -22 194 -23 237 -1 59 31 76 108 37 166 -26 40 -71
58 -143 58 -58 1 -86 23 -86 67 0 47 33 68 117 72 66 4 75 7 75 23 0 17 -8 19
-86 19 -84 0 -87 -1 -120 -34z"/>
<path d="M5927 623 c-4 -3 -7 -84 -7 -179 l0 -172 29 -31 c22 -23 38 -31 63
-31 38 1 68 20 68 44 0 15 -7 16 -44 11 -38 -6 -46 -4 -55 13 -16 30 -14 172
2 176 54 14 72 23 72 36 0 10 -14 17 -40 20 -37 5 -40 7 -43 40 -4 57 -12 80
-26 80 -7 0 -16 -3 -19 -7z"/>
<path d="M559 487 c-124 -82 -67 -277 80 -277 51 0 111 30 111 55 0 23 -26 29
-52 11 -65 -46 -158 4 -158 84 0 80 93 130 158 84 13 -9 29 -13 37 -10 25 9
17 35 -17 56 -46 28 -115 26 -159 -3z"/>
<path d="M832 498 c-8 -8 -12 -54 -12 -139 0 -102 3 -129 15 -139 25 -21 32
-2 37 92 5 100 16 119 85 149 31 13 41 22 37 34 -8 19 -46 19 -83 0 -26 -13
-30 -13 -41 0 -15 18 -22 19 -38 3z"/>
<path d="M1070 495 c-8 -10 -11 -42 -9 -99 3 -66 8 -91 25 -113 50 -67 130
-91 193 -58 26 13 30 13 41 0 18 -22 37 -18 44 8 8 29 7 225 0 255 -4 14 -13
22 -23 20 -13 -3 -17 -21 -21 -93 -7 -104 -11 -115 -49 -138 -44 -26 -86 -22
-123 12 -30 27 -32 34 -36 102 -5 118 -13 139 -42 104z"/>
<path d="M1444 497 c-2 -7 -3 -74 -2 -148 3 -111 6 -134 18 -134 12 0 16 20
20 97 4 85 8 100 29 122 39 41 106 32 133 -17 6 -12 14 -62 17 -112 5 -71 9
-90 21 -90 12 0 16 20 20 97 4 85 8 100 29 122 30 32 78 34 112 7 21 -17 25
-30 29 -115 3 -53 11 -101 17 -107 24 -24 33 3 33 99 0 79 -4 103 -20 129 -35
58 -115 80 -170 48 -14 -8 -31 -17 -38 -21 -8 -4 -31 3 -52 15 -41 23 -84 27
-126 11 -19 -8 -30 -8 -38 0 -14 14 -26 13 -32 -3z"/>
<path d="M2210 491 c-16 -31 -13 -243 4 -267 24 -31 34 -7 38 93 4 80 7 96 28
118 32 34 82 34 115 0 23 -22 25 -32 25 -113 0 -69 4 -93 15 -102 25 -21 33
-1 37 97 4 80 7 96 28 118 32 34 82 34 115 0 23 -22 25 -32 25 -113 0 -66 4
-93 15 -102 27 -22 35 0 35 91 0 106 -15 150 -62 179 -42 27 -114 23 -152 -8
l-27 -21 -36 25 c-39 27 -100 32 -133 12 -15 -10 -22 -10 -32 0 -17 17 -26 15
-38 -7z"/>
<path d="M2855 501 c-34 -14 -74 -62 -87 -102 -20 -68 23 -155 90 -180 35 -13
90 -11 121 6 26 13 30 13 41 0 36 -43 55 13 44 126 -7 77 -31 116 -85 144 -30
16 -92 19 -124 6z m131 -75 c25 -24 34 -43 34 -66 0 -44 -56 -100 -99 -100
-109 0 -149 135 -56 188 40 23 85 14 121 -22z"/>
<path d="M3140 359 c0 -138 1 -150 18 -147 14 3 18 18 22 96 5 90 6 95 38 123
56 50 138 33 161 -33 6 -17 11 -59 11 -94 0 -70 6 -94 25 -94 19 0 25 24 25
107 0 83 -20 132 -67 167 -36 26 -111 33 -150 12 -27 -14 -32 -14 -43 -1 -7 8
-19 15 -26 15 -11 0 -14 -29 -14 -151z"/>
<path d="M3585 491 c-42 -26 -61 -50 -73 -93 -33 -123 100 -231 212 -173 27
14 31 14 38 0 14 -23 37 -18 44 11 12 46 -1 177 -20 206 -42 64 -139 88 -201
49z m146 -62 c89 -95 -41 -227 -140 -143 -27 22 -31 32 -31 74 0 42 4 52 31
74 45 38 102 36 140 -5z"/>
<path d="M3952 490 c-96 -59 -96 -200 0 -261 34 -20 102 -22 156 -4 20 7 22 4
22 -25 0 -48 -46 -90 -100 -90 -22 0 -52 7 -66 16 -31 21 -56 5 -38 -24 28
-45 125 -56 182 -22 65 40 72 65 72 253 0 145 -2 168 -16 174 -10 4 -20 0 -26
-10 -8 -15 -12 -16 -38 -2 -41 21 -109 19 -148 -5z m145 -54 c24 -21 28 -32
28 -76 0 -44 -4 -55 -28 -76 -66 -57 -167 -11 -167 76 0 87 101 133 167 76z"/>
<path d="M4320 488 c-123 -85 -68 -278 79 -278 51 0 111 30 111 55 0 23 -26
29 -52 11 -35 -25 -94 -21 -123 9 -47 46 -37 51 98 53 54 1 102 4 108 7 15 10
10 58 -11 93 -44 71 -144 95 -210 50z m144 -49 c51 -40 30 -59 -67 -59 -76 0
-94 9 -78 38 25 46 99 57 145 21z"/>
<path d="M4627 503 c-4 -3 -7 -69 -7 -145 0 -116 3 -140 15 -145 26 -9 30 4
35 109 5 90 8 102 29 119 34 28 87 25 116 -7 23 -25 25 -35 25 -121 0 -75 3
-95 15 -100 26 -9 30 4 35 109 5 90 8 102 29 119 23 19 65 25 96 13 30 -12 45
-60 45 -149 0 -68 3 -87 15 -92 9 -3 19 -2 23 2 13 12 8 200 -6 226 -36 67
-130 89 -195 45 l-35 -24 -33 24 c-36 26 -95 32 -131 13 -14 -8 -23 -8 -31 0
-12 12 -30 14 -40 4z"/>
<path d="M5252 490 c-130 -79 -74 -280 78 -280 54 0 110 30 110 60 0 24 -26
26 -54 5 -31 -23 -90 -19 -122 8 -49 43 -30 55 90 55 58 0 110 3 115 7 17 10
13 57 -9 93 -42 69 -139 94 -208 52z m144 -53 c18 -16 25 -30 21 -40 -9 -25
-165 -25 -174 0 -4 10 3 24 21 40 37 31 95 31 132 0z"/>
<path d="M5556 494 c-10 -25 -7 -257 3 -273 8 -12 12 -12 25 -2 12 10 16 33
16 96 0 78 2 85 29 114 38 41 95 43 140 5 30 -25 31 -28 31 -108 0 -58 4 -88
15 -102 15 -19 15 -19 31 1 13 16 15 36 11 97 -6 89 -25 131 -77 165 -38 27
-114 31 -146 9 -17 -12 -22 -12 -39 0 -24 18 -31 18 -39 -2z"/>
</g>
</svg>
